<?xml version="1.0" standalone="no"?>
<!DOCTYPE svg PUBLIC "-//W3C//DTD SVG 20010904//EN"
 "http://www.w3.org/TR/2001/REC-SVG-20010904/DTD/svg10.dtd">
<svg version="1.0" xmlns="http://www.w3.org/2000/svg"
 width="368.000000pt" height="336.000000pt" viewBox="0 0 368.000000 336.000000"
 preserveAspectRatio="xMidYMid meet">

<g transform="translate(0.000000,336.000000) scale(0.100000,-0.100000)"
fill="#000000" stroke="none">
<path d="M2606 2594 c-41 -41 -1 -148 53 -142 56 7 62 105 8 143 -27 19 -42
19 -61 -1z m54 -19 c7 -8 8 -15 2 -15 -5 0 -15 7 -22 15 -7 8 -8 15 -2 15 5 0
15 -7 22 -15z"/>
<path d="M2380 2585 c-107 -30 -117 -42 -116 -125 1 -41 -2 -46 -28 -56 -17
-6 -32 -16 -34 -24 -4 -10 5 -12 39 -7 36 5 47 2 72 -19 16 -13 34 -24 40 -24
9 0 12 -41 13 -145 0 -80 -1 -145 -2 -145 -2 0 -38 22 -80 50 -42 27 -106 59
-143 70 -82 25 -111 40 -111 57 0 7 11 13 24 13 33 0 56 35 56 86 0 40 2 42
35 48 19 4 35 12 35 17 0 6 -8 8 -17 5 -10 -2 -45 -12 -77 -21 -45 -13 -56
-19 -45 -27 12 -8 12 -9 -1 -5 -8 2 -16 13 -18 25 -3 17 2 22 20 22 13 0 43 6
67 13 l44 14 -24 16 c-13 9 -18 17 -11 17 19 0 14 28 -7 35 -10 3 -18 13 -17
23 2 27 -78 17 -141 -18 -29 -17 -58 -29 -65 -28 -38 8 8 -150 47 -166 19 -7
21 -76 3 -77 -7 0 -59 0 -115 1 -56 1 -121 -4 -145 -10 -107 -29 -286 -178
-329 -276 -16 -36 -20 -61 -17 -108 4 -55 -4 -90 -89 -366 -51 -167 -97 -308
-101 -312 -5 -5 -728 -284 -855 -330 l-29 -11 28 -18 c21 -14 30 -15 36 -6 5
8 8 6 8 -6 0 -12 54 -53 162 -124 90 -58 272 -177 404 -265 l242 -159 518 166
c949 304 928 297 903 316 -12 9 -31 14 -43 12 -15 -3 -17 -2 -8 5 10 7 4 15
-25 33 -21 13 -42 25 -47 28 -5 2 -24 14 -43 26 -20 14 -42 21 -56 18 -16 -3
-18 -2 -9 5 11 7 11 10 -2 15 -10 4 -16 -1 -19 -16 -4 -21 -4 -21 -6 -1 0 12
-13 33 -28 48 l-26 27 -39 -38 c-35 -34 -40 -36 -49 -21 -5 9 -17 24 -25 33
-15 14 -13 19 12 53 46 60 154 160 225 207 150 101 289 145 459 145 l106 0 82
212 c45 116 81 213 79 214 -2 3 -820 -211 -846 -221 -9 -4 8 -19 45 -41 32
-19 74 -51 92 -70 40 -42 48 -34 -108 -117 l-105 -55 -174 69 c-133 53 -177
66 -183 57 -4 -7 -51 -92 -104 -190 -81 -148 -101 -177 -123 -181 -64 -13
-341 -40 -347 -35 -10 11 48 109 97 162 25 28 79 111 119 184 64 117 75 133
94 128 59 -17 219 -37 271 -34 l60 3 10 61 c6 35 18 69 29 79 16 16 18 29 13
88 -4 48 2 123 19 243 27 195 32 261 20 286 -6 13 -4 15 14 11 12 -3 28 1 39
11 17 16 18 13 24 -51 10 -104 8 -412 -3 -562 -6 -74 -8 -136 -6 -139 3 -2 35
24 72 59 l67 64 -6 172 c-3 94 -3 174 0 176 2 3 39 -12 81 -34 42 -21 102 -44
132 -50 169 -34 257 98 204 304 -8 33 -23 77 -33 96 -12 24 -16 50 -13 78 4
39 2 44 -22 53 -30 11 -32 20 -10 63 13 25 14 32 4 35 -8 3 -24 16 -36 30 -22
23 -25 24 -74 12 -59 -14 -102 -5 -60 12 35 15 51 19 80 21 18 2 27 10 33 32
5 17 13 37 17 46 11 20 -7 39 -34 38 -12 0 -41 -7 -66 -14z m-1643 -1757 c-3
-8 -6 -5 -6 6 -1 11 2 17 5 13 3 -3 4 -12 1 -19z m-200 -80 c-3 -7 -5 -2 -5
12 0 14 2 19 5 13 2 -7 2 -19 0 -25z"/>
<path d="M2525 2564 c-26 -13 -27 -14 -5 -10 14 3 31 6 38 6 6 0 12 5 12 10 0
13 -8 12 -45 -6z"/>
<path d="M2512 2489 c-28 -8 -31 -12 -22 -29 16 -31 39 -38 81 -27 l39 9 -17
29 c-18 31 -28 33 -81 18z"/>
</g>
</svg>
