<?xml version="1.0" standalone="no"?>
<!DOCTYPE svg PUBLIC "-//W3C//DTD SVG 20010904//EN"
 "http://www.w3.org/TR/2001/REC-SVG-20010904/DTD/svg10.dtd">
<svg version="1.0" xmlns="http://www.w3.org/2000/svg"
 width="368.000000pt" height="320.000000pt" viewBox="0 0 368.000000 320.000000"
 preserveAspectRatio="xMidYMid meet">

<g transform="translate(0.000000,320.000000) scale(0.100000,-0.100000)"
fill="#000000" stroke="none">
<path d="M2899 2357 c8 -9 12 -19 10 -21 -2 -2 -28 0 -57 4 -194 25 -455 -110
-655 -340 -44 -50 -49 -53 -61 -37 -7 9 -19 17 -25 17 -7 0 -10 3 -7 8 2 4 -2
16 -10 27 -14 19 -14 19 -29 -1 -28 -37 -83 -160 -95 -213 -19 -81 -8 -163 30
-224 25 -40 29 -52 18 -62 -141 -124 -178 -158 -174 -163 3 -2 18 9 33 25 15
16 45 42 65 57 l37 27 20 -20 c27 -27 29 -26 62 5 l26 25 38 -25 c102 -70 252
-58 435 34 274 137 481 413 480 640 -1 84 -22 130 -96 200 -32 30 -52 47 -45
37z m-1 -67 c31 -14 47 -29 57 -54 27 -64 15 -176 -29 -278 -8 -20 -12 -38 -7
-40 5 -2 11 -12 15 -24 13 -42 -120 -211 -235 -300 -126 -97 -297 -165 -408
-163 -25 0 -40 3 -33 6 20 8 -16 43 -44 43 -44 0 -104 31 -120 62 -64 124 14
337 189 516 69 70 174 150 247 187 122 63 284 83 368 45z"/>
<path d="M1398 2068 c-25 -24 -71 -65 -103 -93 -31 -27 -66 -58 -76 -67 -11
-10 -44 -19 -88 -24 -70 -6 -71 -7 -71 -35 0 -15 -16 -54 -35 -86 l-35 -58 53
-48 c28 -27 46 -46 40 -42 -7 3 -13 1 -13 -4 0 -19 -73 -161 -82 -161 -5 0 -6
-4 -3 -10 3 -5 1 -10 -5 -10 -6 0 -9 -4 -6 -9 14 -22 -32 -18 -102 9 l-77 30
-18 -23 c-60 -74 -117 -163 -117 -182 0 -44 133 -150 202 -161 l33 -6 84 141
c62 105 88 140 100 137 19 -6 84 -9 130 -7 43 1 94 52 112 109 10 36 10 50 -6
101 -38 126 -1 275 95 384 32 36 45 45 58 38 18 -10 52 -14 92 -12 l25 1 -27
18 c-28 18 -88 89 -88 103 0 20 -29 6 -72 -33z"/>
<path d="M1995 2060 c-4 -6 -25 -22 -47 -36 -31 -20 -38 -28 -27 -35 41 -26
123 12 117 55 -3 23 -32 34 -43 16z"/>
<path d="M1635 1939 c-9 -42 0 -47 14 -8 7 22 15 29 26 25 8 -3 15 -1 15 4 0
6 -11 10 -24 10 -19 0 -26 -7 -31 -31z"/>
<path d="M1872 1948 c5 -15 28 -23 28 -10 0 5 -7 13 -16 16 -10 4 -14 1 -12
-6z"/>
<path d="M1731 1904 c-12 -33 -14 -34 -27 -17 -12 16 -13 16 -14 1 0 -9 -26
-41 -57 -72 -32 -31 -52 -56 -45 -56 8 0 12 -17 12 -48 0 -42 14 -113 35 -177
6 -18 5 -18 -13 3 -27 30 -32 20 -48 -98 -3 -25 -9 -64 -14 -88 -8 -47 0 -58
30 -42 18 10 19 14 9 27 -11 13 -6 22 34 60 49 46 53 47 114 28 18 -6 22 -4
18 13 -2 11 -6 35 -9 53 -3 19 -13 72 -21 119 -30 166 -30 211 -1 268 28 56
30 62 18 62 -4 0 -14 -16 -21 -36z"/>
<path d="M598 1865 c-24 -49 -19 -66 14 -46 19 12 20 12 5 -9 -8 -12 -31 -33
-50 -46 -26 -17 -53 -56 -102 -149 -37 -70 -64 -129 -61 -133 4 -3 32 19 62
49 45 43 70 83 130 202 41 82 73 154 70 160 -2 7 -5 4 -5 -5 -1 -9 -6 -20 -13
-24 -6 -4 -8 -3 -5 4 9 13 -2 42 -14 42 -5 0 -19 -20 -31 -45z"/>
<path d="M1979 1533 c-13 -16 -12 -17 4 -4 9 7 17 15 17 17 0 8 -8 3 -21 -13z"/>
<path d="M1505 1067 c-124 -110 -171 -146 -173 -134 -5 25 -89 24 -95 0 -4
-17 -5 -17 -6 0 -1 15 -13 17 -105 17 -91 0 -105 -2 -109 -17 -4 -17 -5 -17
-6 0 -1 15 -12 17 -85 17 l-84 0 -7 -84 c-4 -46 -11 -89 -15 -95 -4 -8 -33 27
-77 96 -114 177 -110 169 -88 193 l18 20 -236 0 -237 0 0 -52 c0 -72 32 -219
65 -303 105 -265 329 -479 600 -572 156 -53 158 -53 1254 -53 1098 0 1060 -2
1170 55 130 65 240 236 241 372 l0 33 -682 2 -683 3 -47 95 c-55 112 -86 223
-95 338 l-6 82 -186 0 -186 1 33 27 c36 30 41 60 15 90 -18 20 -21 17 -188
-131z m-855 -78 c15 -28 5 -23 -15 7 -9 15 -12 23 -6 20 6 -4 16 -16 21 -27z
m-108 -36 c-40 -2 -103 -2 -140 0 -37 2 -4 3 73 3 77 0 107 -2 67 -3z m1356 2
c-7 -7 -379 -7 -386 0 -3 3 84 5 193 5 109 0 196 -2 193 -5z m-1321 -47 c-3
-8 -6 -5 -6 6 -1 11 2 17 5 13 3 -3 4 -12 1 -19z m1330 -10 c-3 -8 -6 -5 -6 6
-1 11 2 17 5 13 3 -3 4 -12 1 -19z"/>
<path d="M866 1036 c-47 -80 -58 -76 222 -76 l247 1 65 59 65 59 -287 1 -286
0 -26 -44z"/>
</g>
</svg>
