<?xml version="1.0" standalone="no"?>
<!DOCTYPE svg PUBLIC "-//W3C//DTD SVG 20010904//EN"
 "http://www.w3.org/TR/2001/REC-SVG-20010904/DTD/svg10.dtd">
<svg version="1.0" xmlns="http://www.w3.org/2000/svg"
 width="368.000000pt" height="301.000000pt" viewBox="0 0 368.000000 301.000000"
 preserveAspectRatio="xMidYMid meet">

<g transform="translate(0.000000,301.000000) scale(0.100000,-0.100000)"
fill="#000000" stroke="none">
<path d="M825 2560 c-11 -12 -19 -39 -21 -72 l-3 -53 8 53 c5 29 17 62 27 73
9 10 15 19 12 19 -3 0 -13 -9 -23 -20z"/>
<path d="M1260 2560 c-6 -11 -8 -20 -6 -20 3 0 10 9 16 20 6 11 8 20 6 20 -3
0 -10 -9 -16 -20z"/>
<path d="M1699 2563 c-13 -16 -12 -17 4 -4 9 7 17 15 17 17 0 8 -8 3 -21 -13z"/>
<path d="M2564 2555 c-9 -14 -15 -27 -13 -30 3 -2 12 10 21 26 21 36 15 39 -8
4z"/>
<path d="M2120 2541 c-5 -11 -9 -32 -9 -48 1 -25 2 -25 8 7 4 20 11 41 15 48
4 7 5 12 2 12 -3 0 -10 -9 -16 -19z"/>
<path d="M1676 2525 c-3 -9 -5 -31 -5 -48 1 -27 3 -24 9 13 8 48 6 61 -4 35z"/>
<path d="M961 2514 c0 -11 3 -14 6 -6 3 7 2 16 -1 19 -3 4 -6 -2 -5 -13z"/>
<path d="M1238 2507 c-3 -19 -2 -25 4 -19 6 6 8 18 6 28 -3 14 -5 12 -10 -9z"/>
<path d="M2272 2495 c0 -16 2 -22 5 -12 2 9 2 23 0 30 -3 6 -5 -1 -5 -18z"/>
<path d="M1402 2490 c0 -14 2 -19 5 -12 2 6 2 18 0 25 -3 6 -5 1 -5 -13z"/>
<path d="M2542 2480 c0 -19 2 -27 5 -17 2 9 2 25 0 35 -3 9 -5 1 -5 -18z"/>
<path d="M2111 2444 c0 -11 3 -14 6 -6 3 7 2 16 -1 19 -3 4 -6 -2 -5 -13z"/>
<path d="M1827 2227 c-22 -28 -55 -81 -75 -117 -19 -36 -36 -66 -38 -68 -1 -2
-22 18 -47 44 l-45 48 -46 -34 c-25 -19 -46 -38 -46 -41 0 -4 10 -9 23 -13 12
-3 52 -23 89 -46 37 -22 69 -40 71 -40 2 0 27 30 55 68 27 37 73 89 102 116
56 52 56 56 12 113 l-17 22 -38 -52z"/>
<path d="M153 2163 c3 -21 9 -62 13 -91 l7 -53 26 25 c15 14 40 28 57 32 l30
6 -61 59 c-34 32 -65 59 -70 59 -4 0 -5 -17 -2 -37z"/>
<path d="M2476 2069 c-41 -79 -32 -120 12 -59 24 32 52 40 52 15 0 -8 12 -21
28 -29 15 -8 42 -31 61 -50 28 -31 31 -39 20 -52 -7 -8 -18 -13 -25 -10 -19 7
-26 -10 -19 -45 6 -28 8 -29 25 -14 40 36 95 36 183 0 26 -11 21 11 -12 45
-27 28 -28 34 -19 70 13 51 6 68 -36 85 -19 8 -43 30 -55 51 -22 36 -23 37
-71 31 -27 -3 -52 -2 -55 4 -4 5 -19 9 -34 9 -24 0 -32 -8 -55 -51z"/>
<path d="M386 1942 c-3 -5 24 -60 59 -123 36 -63 88 -156 117 -207 49 -88 67
-101 68 -50 0 27 -180 367 -200 378 -23 12 -37 13 -44 2z"/>
<path d="M2487 1923 c-3 -4 -1 -28 3 -53 5 -25 9 -48 10 -52 0 -5 5 -8 11 -8
8 0 9 16 5 53 -7 52 -19 77 -29 60z"/>
<path d="M237 1872 c-15 -15 -27 -39 -27 -52 0 -22 439 -889 450 -890 3 0 3
69 2 152 -4 149 -5 154 -35 208 -16 30 -39 71 -50 90 -10 19 -24 42 -31 50 -6
8 -20 33 -31 55 -11 22 -30 57 -42 78 -13 20 -40 68 -60 105 -80 148 -126 225
-139 229 -5 2 -22 -9 -37 -25z"/>
<path d="M1984 1833 l7 -60 -48 -12 c-113 -29 -269 -163 -407 -349 -71 -96
-76 -107 -76 -153 0 -27 7 -66 15 -86 19 -46 20 -45 -12 -41 -26 3 -28 7 -34
63 -3 33 -11 70 -18 83 -14 26 -36 30 -26 5 10 -25 24 -126 18 -135 -9 -16
-75 -7 -114 15 -34 19 -38 26 -33 49 5 27 -10 68 -25 68 -5 0 -7 -19 -4 -42
l6 -41 -67 37 c-37 21 -70 35 -73 32 -14 -14 13 -36 118 -95 101 -57 123 -65
189 -72 117 -13 119 -14 109 -57 -9 -43 6 -59 34 -35 17 16 21 14 70 -34 62
-59 95 -83 118 -83 26 0 62 65 56 98 -4 17 0 13 11 -13 43 -104 133 -276 148
-282 9 -3 50 4 92 16 41 12 76 20 78 19 2 -2 -2 -23 -8 -46 -10 -42 -11 -42
-57 -43 -55 0 -113 -19 -119 -38 -4 -10 0 -12 14 -7 11 5 47 10 82 13 l62 6 0
-37 c0 -22 -10 -53 -25 -77 -21 -32 -31 -40 -53 -38 -45 3 -62 0 -62 -14 0 -9
11 -12 35 -9 19 2 35 1 35 -3 0 -4 -16 -33 -35 -65 -39 -65 -41 -70 -21 -70
18 0 156 224 156 253 0 26 27 158 34 164 2 3 21 0 41 -6 46 -12 58 9 26 43
l-22 23 43 26 c24 14 56 39 72 56 36 38 36 36 -75 176 -112 140 -204 241 -262
286 -27 22 -44 39 -39 39 5 0 41 -29 80 -65 66 -61 79 -68 193 -108 l122 -42
18 -53 c17 -55 71 -122 97 -122 23 0 138 87 175 133 48 58 84 135 102 212 14
59 14 68 -1 98 -28 55 -33 57 -58 34 -13 -12 -37 -33 -54 -47 -42 -34 -94 -78
-113 -95 -14 -13 -17 -7 -26 65 -8 61 -17 88 -37 115 -23 30 -28 49 -36 147
-5 62 -12 134 -16 159 l-5 46 -92 -18 c-149 -29 -151 -29 -286 60 l-24 15 7
-61z m-27 -300 c-20 -2 -52 -2 -70 0 -17 2 0 4 38 4 39 0 53 -2 32 -4z m-110
-9 c-3 -3 -12 -4 -19 -1 -8 3 -5 6 6 6 11 1 17 -2 13 -5z m244 -81 c139 -162
239 -261 285 -283 25 -12 43 -25 40 -27 -21 -21 -176 121 -325 297 -35 41 -70
81 -79 88 -9 6 -11 12 -6 12 6 0 44 -39 85 -87z m-307 58 c-36 -22 -74 -67
-74 -89 0 -8 -3 -12 -7 -8 -19 18 67 116 102 116 5 0 -4 -9 -21 -19z m-87
-218 c-2 -21 -4 -4 -4 37 0 41 2 58 4 38 2 -21 2 -55 0 -75z m10 -65 c-3 -8
-6 -5 -6 6 -1 11 2 17 5 13 3 -3 4 -12 1 -19z m31 -93 c0 -5 -6 4 -13 20 -8
17 -14 37 -14 45 0 8 7 -1 14 -20 7 -19 13 -39 13 -45z m22 -50 c0 -5 -5 -3
-10 5 -5 8 -10 20 -10 25 0 6 5 3 10 -5 5 -8 10 -19 10 -25z m20 -50 c0 -5 -5
-3 -10 5 -5 8 -10 20 -10 25 0 6 5 3 10 -5 5 -8 10 -19 10 -25z"/>
<path d="M2868 1554 c13 -24 60 -68 90 -83 53 -27 4 30 -67 79 -29 20 -32 21
-23 4z"/>
<path d="M3091 1450 c-1 -8 -10 -21 -20 -27 -13 -8 -18 -21 -16 -40 1 -15 -1
-38 -6 -50 -7 -19 -5 -23 11 -23 39 0 70 19 69 42 0 27 -38 121 -38 98z"/>
<path d="M3229 1343 c-13 -16 -12 -17 4 -4 9 7 17 15 17 17 0 8 -8 3 -21 -13z"/>
<path d="M3155 1240 c3 -5 8 -10 11 -10 2 0 4 5 4 10 0 6 -5 10 -11 10 -5 0
-7 -4 -4 -10z"/>
<path d="M3229 1233 c-13 -16 -12 -17 4 -4 16 13 21 21 13 21 -2 0 -10 -8 -17
-17z"/>
<path d="M3184 1221 c7 -11 46 -35 46 -28 0 3 -12 12 -26 22 -15 9 -23 12 -20
6z"/>
<path d="M3005 968 c-16 -24 -22 -38 -14 -31 15 12 53 73 46 73 -2 0 -17 -19
-32 -42z"/>
<path d="M3350 920 c-8 -5 -10 -10 -5 -10 6 0 17 5 25 10 8 5 11 10 5 10 -5 0
-17 -5 -25 -10z"/>
<path d="M3440 910 c-9 -6 -10 -10 -3 -10 6 0 15 5 18 10 8 12 4 12 -15 0z"/>
<path d="M2939 873 c-13 -16 -12 -17 4 -4 16 13 21 21 13 21 -2 0 -10 -8 -17
-17z"/>
<path d="M2804 685 c-53 -75 -94 -138 -91 -141 4 -4 58 70 166 229 17 26 30
47 27 47 -3 0 -49 -61 -102 -135z"/>
<path d="M872 510 c62 -121 115 -220 118 -220 3 0 11 14 19 31 8 18 34 44 62
62 l48 29 -30 57 c-17 31 -46 83 -65 116 -19 33 -44 79 -56 103 l-22 42 -93 0
-93 0 112 -220z"/>
<path d="M1088 349 c-34 -25 -38 -65 -8 -74 23 -7 89 22 103 46 29 47 -43 67
-95 28z"/>
</g>
</svg>
