<?xml version="1.0" standalone="no"?>
<!DOCTYPE svg PUBLIC "-//W3C//DTD SVG 20010904//EN"
 "http://www.w3.org/TR/2001/REC-SVG-20010904/DTD/svg10.dtd">
<svg version="1.0" xmlns="http://www.w3.org/2000/svg"
 width="368.000000pt" height="368.000000pt" viewBox="0 0 368.000000 368.000000"
 preserveAspectRatio="xMidYMid meet">

<g transform="translate(0.000000,368.000000) scale(0.100000,-0.100000)"
fill="#000000" stroke="none">
<path d="M2536 3342 c-3 -5 -19 -9 -37 -10 -63 -2 -96 -66 -56 -110 23 -25 21
-38 -5 -56 -20 -14 -24 -14 -40 1 -10 9 -18 28 -18 42 -1 25 -1 26 -16 6 -9
-12 -13 -31 -10 -47 3 -15 1 -30 -4 -33 -6 -4 -8 -11 -4 -16 3 -5 11 -6 17 -2
7 4 28 9 47 10 62 4 94 78 51 117 -38 34 -4 80 43 58 21 -9 25 -17 22 -38 -3
-17 -1 -24 7 -21 7 2 12 19 12 38 0 19 4 39 8 46 4 6 3 14 -2 17 -5 4 -12 2
-15 -2z"/>
<path d="M110 2830 l0 -130 25 0 25 0 0 130 0 130 -25 0 -25 0 0 -130z"/>
<path d="M210 2880 l0 -80 55 0 c52 0 55 -1 55 -25 0 -24 -3 -25 -55 -25 -52
0 -55 -1 -55 -25 0 -24 2 -25 75 -25 l75 0 0 75 0 75 -50 0 c-49 0 -50 1 -50
30 0 29 1 30 50 30 47 0 50 2 50 25 0 24 -2 25 -75 25 l-75 0 0 -80z"/>
<path d="M430 2935 c0 -23 3 -25 50 -25 47 0 50 -2 50 -25 0 -20 5 -25 25 -25
23 0 25 3 25 50 l0 50 -75 0 c-73 0 -75 -1 -75 -25z"/>
<path d="M730 2830 l0 -130 75 0 75 0 0 130 0 130 -75 0 -75 0 0 -130z m100
-4 l0 -83 -25 5 c-24 4 -25 7 -25 83 0 78 0 79 25 79 25 0 25 -1 25 -84z"/>
<path d="M950 2885 l0 -75 50 0 c49 0 50 -1 50 -30 0 -29 -1 -30 -50 -30 -47
0 -50 -2 -50 -25 0 -24 2 -25 75 -25 l75 0 0 130 0 130 -75 0 -75 0 0 -75z
m100 -5 c0 -27 -3 -30 -30 -30 -27 0 -30 3 -30 30 0 27 3 30 30 30 27 0 30 -3
30 -30z"/>
<path d="M1160 2830 l0 -130 75 0 75 0 0 130 0 130 -75 0 -75 0 0 -130z m100
0 c0 -79 0 -80 -25 -80 -25 0 -25 1 -25 80 0 79 0 80 25 80 25 0 25 -1 25 -80z"/>
<path d="M1483 2863 c59 -2 155 -2 215 0 59 1 10 3 -108 3 -118 0 -167 -2
-107 -3z"/>
<path d="M480 2825 c0 -20 5 -25 25 -25 20 0 25 -5 25 -25 0 -23 -3 -25 -50
-25 -47 0 -50 -2 -50 -25 0 -24 2 -25 75 -25 l75 0 0 50 c0 47 -2 50 -25 50
-20 0 -25 5 -25 25 0 20 -5 25 -25 25 -20 0 -25 -5 -25 -25z"/>
<path d="M630 2725 c0 -20 5 -25 25 -25 20 0 25 5 25 25 0 20 -5 25 -25 25
-20 0 -25 -5 -25 -25z"/>
<path d="M2356 2557 c-57 -83 -48 -147 21 -147 17 0 23 -6 23 -22 0 -13 10
-34 21 -48 11 -14 18 -19 14 -12 -4 8 3 12 24 12 29 0 31 3 31 34 0 25 5 36
18 40 20 7 71 56 58 56 -4 0 -33 -7 -63 -16 -46 -13 -57 -14 -64 -3 -16 25
-10 56 11 62 11 3 20 13 20 22 0 13 -6 16 -24 11 -22 -5 -24 -3 -22 26 2 53
-26 47 -68 -15z"/>
<path d="M2224 2316 c-100 -27 -120 -40 -211 -133 l-73 -74 0 54 0 55 -127 8
c-71 4 -317 7 -548 8 -387 1 -420 0 -423 -16 -2 -9 24 -63 56 -120 l60 -103
-123 -5 c-146 -6 -158 -13 -174 -98 -12 -67 -21 -46 151 -352 396 -705 562
-997 577 -1014 9 -10 34 -28 56 -40 38 -20 57 -21 370 -26 309 -5 330 -6 333
-23 2 -12 -4 -20 -17 -24 -19 -5 -19 -7 -5 -34 8 -16 11 -29 6 -29 -5 0 -14
11 -20 25 -13 27 -21 26 -67 -8 -16 -13 -17 -17 -6 -31 8 -9 11 -19 8 -22 -3
-3 -10 4 -17 15 -25 47 -150 6 -150 -50 0 -18 11 -19 270 -19 l270 0 0 33 c0
42 -27 122 -46 138 -22 18 -17 36 15 47 l28 10 7 239 c9 316 17 443 27 418 4
-11 26 -155 48 -320 25 -187 46 -312 56 -333 13 -24 17 -58 16 -132 l-1 -100
130 0 130 0 0 25 c0 13 -9 48 -19 77 -10 29 -21 72 -24 95 -4 35 -1 44 16 56
l20 13 -46 415 c-26 228 -47 426 -47 442 0 21 5 27 21 27 21 0 21 2 14 113
l-7 113 59 43 c149 110 164 202 64 401 -60 121 -96 167 -149 194 -89 45 -87
46 -87 -37 0 -84 -20 -128 -75 -165 -73 -49 -136 7 -191 167 -23 65 -45 101
-62 100 -6 0 -49 -11 -93 -23z m-407 -148 l23 -21 0 22 c0 16 5 22 18 19 24
-4 31 -88 8 -88 -10 0 -16 9 -16 23 0 14 -3 18 -8 10 -5 -8 -19 -2 -47 22 -32
27 -36 34 -21 35 11 0 30 -10 43 -22z m113 -23 c0 -49 -23 -64 -34 -22 -12 44
-7 67 14 67 17 0 20 -7 20 -45z m-666 -181 c5 -13 0 -16 -28 -12 -21 2 -32 0
-30 -7 2 -5 21 -10 41 -10 22 0 38 -5 41 -14 3 -10 -4 -12 -31 -9 -31 3 -34 2
-26 -13 14 -28 12 -29 -50 -29 -40 0 -63 5 -71 15 -11 13 -7 15 24 15 l37 0
-16 28 c-13 21 -24 27 -52 27 -20 0 -38 5 -40 12 -3 8 24 12 95 12 83 1 101
-2 106 -15z m-193 -174 c54 -96 106 -181 116 -188 15 -12 70 -13 299 -9 l281
5 185 -331 185 -332 -8 -185 c-4 -102 -8 -186 -8 -187 -2 -8 -582 -1 -612 7
-75 21 -95 51 -438 662 -392 697 -374 664 -366 695 8 35 37 42 159 40 l109 -2
98 -175z m77 133 c6 -20 -55 -16 -62 3 -5 12 1 15 26 12 17 -2 33 -9 36 -15z
m160 -40 c6 -20 -55 -16 -62 3 -5 12 1 15 26 12 17 -2 33 -9 36 -15z m489
-150 c3 -9 -67 -11 -298 -10 -233 2 -303 5 -307 15 -3 10 58 12 299 10 224 -2
303 -6 306 -15z m-457 -42 c40 -7 42 -8 19 -15 -38 -11 -132 -3 -137 12 -4 14
45 15 118 3z m747 -207 c-4 -7 -1 -19 8 -27 8 -9 15 -22 15 -30 0 -8 9 -17 20
-20 19 -5 20 -13 19 -119 -1 -62 -4 -156 -8 -208 l-6 -95 -171 305 c-94 168
-171 306 -170 307 1 1 28 3 61 4 75 3 85 6 85 32 0 15 18 2 78 -59 48 -49 74
-83 69 -90z"/>
<path d="M2540 2336 c0 -2 7 -7 16 -10 8 -3 12 -2 9 4 -6 10 -25 14 -25 6z"/>
<path d="M2450 2290 c6 -11 13 -20 16 -20 2 0 0 9 -6 20 -6 11 -13 20 -16 20
-2 0 0 -9 6 -20z"/>
<path d="M2582 2255 c0 -16 2 -22 5 -12 2 9 2 23 0 30 -3 6 -5 -1 -5 -18z"/>
<path d="M2478 2244 c19 -36 71 -74 100 -73 24 1 23 2 -8 9 -21 5 -48 23 -69
47 -18 21 -29 28 -23 17z"/>
<path d="M3330 2060 c8 -5 24 -9 35 -9 l20 0 -20 9 c-11 5 -27 9 -35 9 -13 1
-13 0 0 -9z"/>
<path d="M136 1645 c-9 -26 -7 -32 5 -12 6 10 9 21 6 23 -2 3 -7 -2 -11 -11z"/>
<path d="M483 1524 c-18 -7 -39 -27 -47 -42 -15 -28 -14 -29 10 -24 23 4 74
54 74 73 0 5 -1 9 -2 8 -2 0 -17 -7 -35 -15z"/>
<path d="M395 1509 c-4 -6 -5 -12 -2 -15 2 -3 7 2 10 11 7 17 1 20 -8 4z"/>
</g>
</svg>
