<?xml version="1.0" standalone="no"?>
<!DOCTYPE svg PUBLIC "-//W3C//DTD SVG 20010904//EN"
 "http://www.w3.org/TR/2001/REC-SVG-20010904/DTD/svg10.dtd">
<svg version="1.0" xmlns="http://www.w3.org/2000/svg"
 width="368.000000pt" height="353.000000pt" viewBox="0 0 368.000000 353.000000"
 preserveAspectRatio="xMidYMid meet">

<g transform="translate(0.000000,353.000000) scale(0.100000,-0.100000)"
fill="#000000" stroke="none">
<path d="M2540 3061 l0 -178 -142 -6 c-79 -3 -153 -8 -165 -12 l-23 -7 0 176
c0 97 -4 176 -9 176 -27 0 -31 -33 -29 -216 l3 -189 55 -18 c116 -40 443 -28
487 16 19 19 19 387 0 399 -18 12 -75 26 -129 32 l-48 5 0 -178z"/>
<path d="M1565 2691 c-46 -28 -125 -117 -125 -141 0 -29 44 -70 76 -70 19 0
25 -4 21 -15 -4 -8 -2 -17 3 -20 6 -4 10 -29 10 -58 0 -51 -1 -53 -76 -128
l-76 -76 36 -22 c53 -33 112 -106 154 -190 36 -73 37 -77 37 -190 0 -90 -4
-128 -19 -168 -23 -62 -14 -96 42 -144 33 -29 39 -31 94 -26 32 3 58 4 58 3 0
-2 -20 -51 -45 -110 -25 -60 -45 -118 -45 -130 0 -12 12 -33 26 -47 23 -21 36
-24 125 -27 110 -4 137 5 163 56 18 36 219 552 241 622 16 50 19 53 28 32 7
-15 19 -22 39 -22 15 0 28 -4 28 -10 0 -5 9 -10 20 -10 11 0 20 5 20 10 0 6 6
10 13 10 7 0 25 12 41 26 23 22 27 31 21 58 -4 17 -7 61 -6 98 1 49 -4 81 -20
117 -11 27 -18 55 -14 61 11 18 -26 167 -59 232 -36 71 -86 115 -173 149 -82
33 -262 33 -342 1 -30 -12 -56 -21 -57 -19 -1 1 -7 13 -14 27 -24 47 -81 108
-114 124 -44 21 -74 20 -111 -3z m35 -181 c0 -12 -28 -25 -36 -17 -9 9 6 27
22 27 8 0 14 -5 14 -10z m240 -175 c30 -41 70 -91 88 -113 l32 -40 -30 -22
c-30 -22 -32 -22 -52 -4 -11 11 -43 50 -69 88 -47 66 -49 72 -48 135 0 55 2
63 12 47 7 -10 37 -51 67 -91z m363 -56 c33 -73 34 -80 14 -65 -12 9 -39 25
-59 36 -41 22 -44 30 -27 61 7 15 7 24 -2 35 -9 11 -7 14 13 14 21 0 30 -12
61 -81z m-458 -140 c-4 -5 -13 -9 -22 -9 -13 0 -13 3 -3 15 13 15 35 11 25 -6z
m255 -243 c0 -2 -19 -46 -43 -97 -24 -52 -47 -105 -53 -118 -10 -23 -13 -20
-54 55 -23 43 -51 91 -61 106 -11 14 -19 29 -19 32 0 3 21 6 48 7 26 0 70 4
97 9 62 9 85 11 85 6z"/>
<path d="M1897 1869 c7 -7 15 -10 18 -7 3 3 -2 9 -12 12 -14 6 -15 5 -6 -5z"/>
<path d="M1204 1970 c-60 -69 -74 -80 -104 -81 -19 -1 -48 -4 -63 -8 -27 -6
-26 -7 22 -24 49 -17 99 -57 134 -107 11 -16 20 -21 23 -13 3 7 33 31 67 54
34 23 85 61 113 84 l51 41 -18 26 c-24 33 -80 75 -122 93 l-34 14 -69 -79z"/>
<path d="M484 2015 c-10 -8 -32 -15 -47 -15 -36 0 -81 -24 -101 -52 -25 -35
-21 -104 7 -132 l23 -23 -23 -27 c-32 -37 -32 -104 0 -134 43 -41 104 -23 121
34 4 12 15 29 26 39 31 28 26 46 -10 39 -17 -4 -36 -1 -44 5 -16 13 -20 91 -5
91 5 0 14 11 19 24 5 14 23 35 39 47 17 13 31 31 31 40 0 16 3 16 29 3 57 -29
81 -136 35 -159 l-21 -11 26 -30 c31 -37 56 -47 81 -34 26 14 33 54 16 95 -14
32 -14 36 4 45 10 5 26 10 34 10 9 0 16 4 16 10 0 12 -63 24 -88 16 -16 -5
-25 2 -43 31 -13 20 -24 46 -24 56 -3 42 -63 61 -101 32z"/>
<path d="M570 1860 c-8 -5 -11 -12 -7 -16 4 -4 15 0 24 9 18 18 8 23 -17 7z"/>
<path d="M2772 1815 c0 -16 2 -22 5 -12 2 9 2 23 0 30 -3 6 -5 -1 -5 -18z"/>
<path d="M2824 1808 l-19 -23 23 19 c12 11 22 21 22 23 0 8 -8 2 -26 -19z"/>
<path d="M434 1795 c-10 -25 4 -45 31 -45 27 0 32 15 11 43 -16 21 -35 22 -42
2z"/>
<path d="M2595 1780 c10 -11 20 -20 23 -20 3 0 -3 9 -13 20 -10 11 -20 20 -23
20 -3 0 3 -9 13 -20z"/>
<path d="M3060 1796 c0 -2 8 -10 18 -17 15 -13 16 -12 3 4 -13 16 -21 21 -21
13z"/>
<path d="M2783 1765 c0 -8 4 -12 9 -9 5 3 6 10 3 15 -9 13 -12 11 -12 -6z"/>
<path d="M2620 1746 c0 -2 8 -10 18 -17 15 -13 16 -12 3 4 -13 16 -21 21 -21
13z"/>
<path d="M578 1684 l-28 -14 35 -48 c51 -70 98 -121 90 -97 -29 88 -61 175
-65 175 -3 -1 -17 -7 -32 -16z"/>
<path d="M804 1655 c11 -8 22 -12 25 -9 6 6 -19 24 -34 24 -5 -1 -1 -7 9 -15z"/>
<path d="M907 1628 c3 -18 17 -55 31 -83 15 -27 26 -52 27 -55 0 -3 3 -9 7
-15 3 -5 9 -27 12 -48 5 -29 24 -59 73 -115 36 -43 70 -78 74 -80 4 -2 10 6
14 17 4 13 -7 54 -29 108 -38 96 -86 254 -86 284 0 17 -8 19 -65 19 l-64 0 6
-32z"/>
<path d="M2720 1616 c0 -8 4 -17 9 -20 5 -4 7 3 4 14 -6 23 -13 26 -13 6z"/>
<path d="M2875 1438 l-50 -53 53 50 c28 27 52 51 52 52 0 8 -9 -1 -55 -49z"/>
<path d="M2570 1425 c13 -14 26 -25 28 -25 3 0 -5 11 -18 25 -13 14 -26 25
-28 25 -3 0 5 -11 18 -25z"/>
<path d="M2785 1375 c-16 -8 -23 -14 -14 -15 8 0 24 7 35 15 23 18 18 18 -21
0z"/>
<path d="M2668 1363 c7 -3 16 -2 19 1 4 3 -2 6 -13 5 -11 0 -14 -3 -6 -6z"/>
<path d="M2713 1353 c9 -2 23 -2 30 0 6 3 -1 5 -18 5 -16 0 -22 -2 -12 -5z"/>
<path d="M1580 1230 c0 -5 7 -7 15 -4 8 4 15 8 15 10 0 2 -7 4 -15 4 -8 0 -15
-4 -15 -10z"/>
<path d="M1613 1221 c-7 -12 -31 -33 -53 -47 -40 -27 -40 -27 -18 -38 33 -17
35 -51 4 -71 -36 -24 -56 -13 -56 31 0 31 -3 35 -17 28 -49 -21 -181 -64 -200
-64 -13 0 -24 8 -28 21 -6 19 -8 20 -26 3 -24 -22 -24 -51 1 -89 11 -16 20
-40 20 -51 0 -12 7 -27 15 -34 8 -7 15 -23 15 -35 0 -12 10 -35 22 -50 20 -26
25 -27 79 -22 40 3 63 1 76 -9 30 -22 35 -16 28 34 -6 43 -2 58 35 135 43 93
62 106 102 70 17 -15 19 -15 33 3 8 10 15 15 15 11 0 -4 8 -3 18 2 21 11 19
73 -4 92 -8 6 -14 22 -14 34 0 13 -8 32 -17 44 -18 22 -18 22 -30 2z"/>
<path d="M2595 1158 c-78 -81 -139 -175 -147 -228 -2 -21 3 -27 32 -36 54 -18
208 -34 233 -25 12 5 53 45 91 90 38 45 73 80 78 79 5 -2 36 -66 69 -143 33
-77 69 -146 79 -154 30 -20 24 -62 -15 -122 -40 -59 -40 -78 2 -73 28 4 28 4
3 -6 -32 -14 -32 -12 -19 -49 9 -25 16 -31 30 -28 28 7 23 -2 -6 -13 -31 -12
-33 -51 -5 -98 36 -59 36 -59 90 181 l32 137 -31 55 -31 55 23 14 c12 8 54 25
92 37 39 12 71 23 73 24 2 2 -9 32 -24 68 l-27 65 -91 45 c-50 25 -136 75
-191 111 -73 47 -118 69 -165 80 -36 9 -72 16 -80 16 -8 0 -51 -37 -95 -82z"/>
<path d="M1347 763 c-13 -13 -7 -23 26 -38 28 -14 30 -14 13 0 -11 8 -23 15
-28 15 -4 0 -8 4 -8 9 0 6 19 12 43 14 l42 4 -41 1 c-22 1 -44 -1 -47 -5z"/>
<path d="M165 478 c-11 -7 -29 -12 -40 -13 -11 0 -21 -7 -23 -15 -4 -21 362
-343 385 -338 10 2 20 16 24 34 5 29 -4 43 -129 188 -121 140 -138 156 -166
156 -17 0 -40 -6 -51 -12z"/>
<path d="M3500 309 c0 -8 -10 -25 -23 -37 -30 -28 -80 -29 -130 -2 -43 23 -61
19 -52 -13 6 -21 5 -21 -9 -4 -16 21 -46 17 -67 -9 -9 -11 -9 -18 -1 -26 7 -7
12 -16 12 -21 0 -6 -11 2 -25 18 -21 21 -31 26 -53 20 -30 -7 -59 -30 -73 -57
-9 -17 4 -18 236 -18 l245 0 0 23 c0 37 -19 94 -40 119 -15 17 -19 19 -20 7z"/>
<path d="M727 229 c-27 -22 -37 -38 -34 -50 4 -14 0 -19 -15 -19 -14 0 -19 -6
-16 -22 l3 -23 255 0 c218 0 255 2 258 15 2 12 -43 27 -195 69 -109 30 -203
56 -208 58 -6 2 -27 -11 -48 -28z"/>
</g>
</svg>
